<?xml version="1.0" encoding="utf-8"?>
<!-- Generator: Adobe Illustrator 21.0.0, SVG Export Plug-In . SVG Version: 6.00 Build 0)  -->
<svg version="1.1" id="Layer_3_copy" xmlns="http://www.w3.org/2000/svg" xmlns:xlink="http://www.w3.org/1999/xlink" x="0px"
	 y="0px" viewBox="0 0 500 500" style="enable-background:new 0 0 500 500;" xml:space="preserve">
<style type="text/css">
	.st0{fill:#50FA7B;}
	.st1{fill:#FF79C6;}
</style>
<g>
	<path class="st0" d="M250,415.5c-91.2,0-165.3-74.1-165.3-165.2S158.9,85,250,85l134.9-0.5c8.3,0,15,6.7,15.1,15v0
		c0,8.3-6.7,15-14.9,15l-135,0.5c-74.6,0-135.3,60.7-135.3,135.2S175.4,385.5,250,385.5l75.1-0.2c33.2,0,60.2-26.6,60.2-59.4
		s-27-59.4-60.1-59.4l-60.1,0.2c-8.3,0-15-6.7-15-15v0c0-8.3,6.7-15,15-15l60.1-0.2c49.7,0,90.2,40.1,90.2,89.4
		s-40.4,89.4-90.1,89.4L250,415.5z"/>
	<path class="st1" d="M249.9,339.5c-49.7,0-90.2-40.1-90.2-89.4s40.4-89.4,90.1-89.4l136.1-0.2c8.3,0,15,6.7,15,15v0
		c0,8.3-6.7,15-15,15l-136.1,0.2c-33.2,0-60.2,26.6-60.2,59.4s27,59.4,60.1,59.4l60.1-0.2c8.3,0,15,6.7,15,15v0c0,8.3-6.7,15-15,15
		L249.9,339.5z"/>
</g>
</svg>
