<?xml version="1.0" encoding="utf-8"?>
<!-- Generator: Adobe Illustrator 21.0.0, SVG Export Plug-In . SVG Version: 6.00 Build 0)  -->
<svg version="1.1" xmlns="http://www.w3.org/2000/svg" xmlns:xlink="http://www.w3.org/1999/xlink" x="0px" y="0px"
	 viewBox="0 0 351.8 380.5" style="enable-background:new 0 0 351.8 380.5;" xml:space="preserve">
<g id="Layer_3_copy">
	<g>
		<path d="M256.8,352.8c-75.9,50.5-178.7,29.9-229.1-45.9s-29.8-178.7,46-229.2l112-75.2c6.9-4.6,16.2-2.7,20.9,4.1l0,0
			c4.6,6.9,2.7,16.2-4.1,20.7L90.3,102.6c-62.1,41.3-79,125.5-37.7,187.5s125.4,79.1,187.5,37.7l54.5-34.7
			c27.6-18.4,35.4-55.5,17.2-82.8s-55.4-34.5-82.9-16.1l-42,26.4c-6.9,4.6-16.2,2.7-20.8-4.2l0,0c-4.6-6.9-2.7-16.2,4.2-20.8
			l42-26.4c41.4-27.5,97.3-16.6,124.6,24.4s15.9,96.8-25.5,124.3L256.8,352.8z"/>
		<path d="M219,288.6c-41.4,27.5-97.3,16.6-124.6-24.4s-15.9-96.8,25.5-124.3l110.2-72.6c6.9-4.6,16.2-2.7,20.8,4.2l0,0
			c4.6,6.9,2.7,16.2-4.2,20.8l-110.2,72.6c-27.6,18.4-35.4,55.5-17.2,82.8s55.4,34.5,82.9,16.1l56.6-35.2c6.9-4.6,16.2-2.7,20.8,4.2
			l0,0c4.6,6.9,2.7,16.2-4.2,20.8L219,288.6z"/>
	</g>
</g>
<g id="Layer_2">
</g>
</svg>
