<?xml version="1.0" encoding="utf-8"?>
<!-- Generator: Adobe Illustrator 21.0.0, SVG Export Plug-In . SVG Version: 6.00 Build 0)  -->
<svg version="1.1" id="Layer_1" xmlns="http://www.w3.org/2000/svg" xmlns:xlink="http://www.w3.org/1999/xlink" x="0px" y="0px"
	 viewBox="0 0 513 172.5" style="enable-background:new 0 0 513 172.5;" xml:space="preserve">
<style type="text/css">
	.st0{fill:#BD93F9;}
	.st1{fill:#50FA7B;}
</style>
<image style="display:none;overflow:visible;" width="950" height="289" xlink:href="59179843.jpg"  transform="matrix(0.5 0 0 0.5 18.9756 14)">
</image>
<g>
	<path class="st0" d="M33.9,80l1.6-9h45l1.6-9h-36l1.6-9h-9l1.6-9h9l1.6-9h45l-1.6,9h-36l-1.6,9h36l-1.6,9h9l-1.6,9h-9l-1.6,9H33.9z
		"/>
	<path class="st0" d="M105.9,80l1.6-9h18l4.8-27h-9l1.6-9h27l-6.3,36h18l-1.6,9H105.9z M133.4,26l1.6-9h18l-1.6,9H133.4z"/>
	<path class="st0" d="M168.9,80l7.9-45h54l-1.6,9h9l-6.3,36h-18l6.3-36h-9l-6.3,36h-18l6.3-36h-9l-6.3,36H168.9z"/>
	<path class="st0" d="M249.9,80l1.6-9h-9l4.8-27h9l1.6-9h45l-1.6,9h9l-4.8,27h-9l-1.6,9H249.9z M260.5,71h27l4.8-27h-27L260.5,71z"
		/>
	<path class="st0" d="M312.9,80l7.9-45h54l-1.6,9h9l-6.3,36h-18l6.3-36h-27l-6.3,36H312.9z"/>
</g>
<g>
	<path class="st1" d="M30.9,77l1.6-9h45l1.6-9h-36l1.6-9h-9l1.6-9h9l1.6-9h45l-1.6,9h-36l-1.6,9h36l-1.6,9h9l-1.6,9h-9l-1.6,9H30.9z
		"/>
	<path class="st1" d="M102.9,77l1.6-9h18l4.8-27h-9l1.6-9h27l-6.3,36h18l-1.6,9H102.9z M130.4,23l1.6-9h18l-1.6,9H130.4z"/>
	<path class="st1" d="M165.9,77l7.9-45h54l-1.6,9h9l-6.3,36h-18l6.3-36h-9l-6.3,36h-18l6.3-36h-9l-6.3,36H165.9z"/>
	<path class="st1" d="M246.9,77l1.6-9h-9l4.8-27h9l1.6-9h45l-1.6,9h9l-4.8,27h-9l-1.6,9H246.9z M257.5,68h27l4.8-27h-27L257.5,68z"
		/>
	<path class="st1" d="M309.9,77l7.9-45h54l-1.6,9h9l-6.3,36h-18l6.3-36h-27l-6.3,36H309.9z"/>
</g>
<g>
	<path class="st0" d="M71,159l1.6-9h36l1.6-9h-36l1.6-9h-9l3.2-18h9l1.6-9h54l-7.9,45h-9l-1.6,9H71z M84.8,132h27l3.2-18h-27
		L84.8,132z"/>
	<path class="st0" d="M168.9,114h9l-1.6,9h-9l-4.8,27h-18l7.9-45h18L168.9,114z M206.5,105l-1.6,9h-27l1.6-9H206.5z"/>
	<path class="st0" d="M216.6,150l1.6-9h-9l1.6-9h9l1.6-9h36l1.6-9h-36l1.6-9h45l-1.6,9h9l-6.3,36H216.6z M227.2,141h27l1.6-9h-27
		L227.2,141z"/>
	<path class="st0" d="M306.6,150l1.6-9h-9l1.6-9h-9l4.8-27h18l-4.8,27h18l4.8-27h18l-4.8,27h-9l-1.6,9h-9l-1.6,9H306.6z"/>
	<path class="st0" d="M360.6,150l1.6-9h-9l4.8-27h9l1.6-9h45l-1.6,9h9l-3.2,18h-45l-1.6,9h36l-1.6,9H360.6z M374.3,123h27l1.6-9h-27
		L374.3,123z"/>
	<path class="st0" d="M425.6,150l1.6-9h18l7.9-45h-9l1.6-9h27l-9.5,54h18l-1.6,9H425.6z"/>
</g>
<g>
	<path class="st1" d="M68,156l1.6-9h36l1.6-9h-36l1.6-9h-9l3.2-18h9l1.6-9h54l-7.9,45h-9l-1.6,9H68z M81.8,129h27l3.2-18h-27
		L81.8,129z"/>
	<path class="st1" d="M165.9,111h9l-1.6,9h-9l-4.8,27h-18l7.9-45h18L165.9,111z M203.5,102l-1.6,9h-27l1.6-9H203.5z"/>
	<path class="st1" d="M213.6,147l1.6-9h-9l1.6-9h9l1.6-9h36l1.6-9h-36l1.6-9h45l-1.6,9h9l-6.3,36H213.6z M224.2,138h27l1.6-9h-27
		L224.2,138z"/>
	<path class="st1" d="M303.6,147l1.6-9h-9l1.6-9h-9l4.8-27h18l-4.8,27h18l4.8-27h18l-4.8,27h-9l-1.6,9h-9l-1.6,9H303.6z"/>
	<path class="st1" d="M357.6,147l1.6-9h-9l4.8-27h9l1.6-9h45l-1.6,9h9l-3.2,18h-45l-1.6,9h36l-1.6,9H357.6z M371.3,120h27l1.6-9h-27
		L371.3,120z"/>
	<path class="st1" d="M422.6,147l1.6-9h18l7.9-45h-9l1.6-9h27l-9.5,54h18l-1.6,9H422.6z"/>
</g>
</svg>
